<svg xmlns="http://www.w3.org/2000/svg" width="266.667" height="266.667" preserveAspectRatio="xMidYMid meet" version="1.0" viewBox="0 0 200 200"><g fill="#000" stroke="none"><path d="M870 1704 c-76 -20 -152 -69 -214 -135 -94 -102 -126 -194 -126 -371 l0 -118 -35 0 c-48 0 -94 -21 -130 -59 l-30 -32 -3 -395 c-3 -448 -4 -445 73 -489 l42 -25 553 0 553 0 42 25 c77 44 76 41 73 489 l-3 395 -30 32 c-36 38 -82 59 -130 59 l-35 0 0 118 c0 177 -32 269 -126 371 -95 102 -209 152 -349 150 -38 0 -95 -7 -125 -15z m271 -152 c74 -36 125 -87 161 -160 31 -62 33 -74 37 -189 l3 -123 -341 0 -341 0 0 103 c0 117 15 179 59 249 35 55 108 112 171 133 66 22 193 15 251 -13z m-60 -743 c15 -11 35 -39 45 -64 16 -43 16 -47 -1 -90 -9 -25 -25 -50 -36 -55 -17 -10 -19 -22 -19 -113 0 -90 -3 -106 -20 -125 -26 -28 -73 -29 -100 -2 -17 17 -20 33 -20 125 0 92 -2 105 -19 115 -11 5 -27 30 -36 55 -17 43 -17 47 -1 90 17 44 52 78 91 88 32 8 87 -3 116 -24z" transform="translate(0.000000,200.000000) scale(0.100000,-0.100000)"/></g></svg>